<svg data-v-423bf9ae="" xmlns="http://www.w3.org/2000/svg" viewBox="0 0 341 90" class="iconLeft"><!----><!----><!----><g data-v-423bf9ae="" id="8c307f97-4561-47a3-820e-5ab3a8af4632" fill="#FFFFFF" transform="matrix(5.714285714285714,0,0,5.714285714285714,106.84229612350464,13.800000876188278)"><path d="M5.35 9.60C5.32 9.95 5.29 10.30 5.49 10.50L6.76 10.50C6.55 10.23 6.50 9.76 6.65 9.02L7.27 5.82C7.62 3.99 6.93 3.01 4.98 3.01C3.58 3.01 2.18 3.53 1.50 5.21L2.65 5.47C3.07 4.52 3.75 4.02 4.66 4.02C5.63 4.02 6.27 4.44 6.05 5.57L5.99 5.85C5.60 6.02 4.72 6.16 3.93 6.23C2.28 6.38 0.92 7.01 0.62 8.58C0.34 10.07 1.34 10.71 2.69 10.71C3.56 10.71 4.47 10.42 5.35 9.60ZM5.47 8.54C5.00 9.03 4.00 9.70 3.07 9.70C2.39 9.70 1.78 9.45 1.95 8.53C2.14 7.53 3.08 7.36 3.88 7.24C4.61 7.13 5.45 6.97 5.81 6.82ZM11.00 9.44C10.75 9.51 10.54 9.52 10.40 9.52C9.74 9.52 9.84 9.07 9.97 8.44L10.78 4.19L12.03 4.19L12.21 3.22L10.96 3.22L11.44 0.70L10.07 1.30L9.70 3.22L8.67 3.22L8.48 4.19L9.52 4.19L8.71 8.37C8.44 9.80 8.46 10.64 9.98 10.64C10.25 10.64 10.64 10.58 10.95 10.50ZM13.61 10.50L15.58 0.21L14.21 0.77L12.35 10.50ZM18.38 9.44C18.13 9.51 17.92 9.52 17.78 9.52C17.12 9.52 17.22 9.07 17.35 8.44L18.16 4.19L19.40 4.19L19.59 3.22L18.34 3.22L18.82 0.70L17.44 1.30L17.08 3.22L16.04 3.22L15.86 4.19L16.90 4.19L16.09 8.37C15.82 9.80 15.83 10.64 17.36 10.64C17.63 10.64 18.02 10.58 18.33 10.50ZM26.11 8.29L24.96 8.04C24.50 9.13 23.56 9.66 22.71 9.66C21.66 9.66 20.80 8.93 21.04 7.18L23.56 7.18C25.06 7.18 26.43 6.72 26.45 5.05C26.45 4.17 25.72 3.01 23.91 3.01C21.90 3.01 20.31 4.45 19.84 6.86C19.38 9.27 20.41 10.71 22.43 10.71C24.01 10.71 25.37 9.91 26.11 8.29ZM23.72 4.06C24.51 4.06 25.26 4.41 25.23 5.10C25.20 5.92 24.64 6.17 23.74 6.17L21.27 6.17C21.78 4.69 22.85 4.06 23.72 4.06ZM28.24 6.86C28.63 4.87 29.75 4.06 30.86 4.06C31.71 4.06 32.52 4.34 32.41 5.50L33.60 5.50C33.80 3.84 32.62 3.01 31.05 3.01C29.04 3.01 27.45 4.45 26.98 6.86C26.52 9.27 27.55 10.71 29.57 10.71C31.14 10.71 32.37 9.83 33.05 8.30L31.89 8.02C31.40 9.17 30.63 9.66 29.78 9.66C28.67 9.66 27.86 8.85 28.24 6.86ZM35.31 10.50L36.05 6.54C36.36 4.94 37.32 4.07 38.47 4.07C39.56 4.07 39.82 4.83 39.58 6.09L38.74 10.50L40.00 10.50L40.85 6.03C41.17 4.30 40.94 3.01 38.92 3.01C37.91 3.01 37.07 3.42 36.51 4.21L37.24 0.42L35.98 0.42L34.05 10.50Z"></path></g><!----><g data-v-423bf9ae="" id="f5aa1e7e-7114-4d4f-b856-663fcfc7f2e3" transform="matrix(4.5,0,0,4.5,0.9871927443891764,0)" stroke="none" fill="#FF6A3D"><path d="M18.1 6.9c-.1-.5-.5-.9-1-.9H15V5c0-2.8-2.2-5-5-5S5 2.2 5 5v1H2.9c-.5 0-.9.4-1 .9L0 18.9c-.1.6.4 1.1 1 1.1h18c.6 0 1.1-.5 1-1.1l-1.9-12zM7 5c0-1.7 1.3-3 3-3s3 1.3 3 3v1H7V5zm7.7 5.7l-6 6c-.4.4-1 .4-1.4 0l-3-3c-.4-.4-.4-1 0-1.4.4-.4 1-.4 1.4 0L8 14.6l5.3-5.3c.4-.4 1-.4 1.4 0 .4.4.4 1 0 1.4z"></path></g><!----></svg>